<svg xmlns="http://www.w3.org/2000/svg" width="18.452" height="18.452" viewBox="0 0 18.452 18.452">
    <defs>
        <style>
            .cls-1{opacity:.6}.cls-2{fill:#12213f}.cls-3{fill:#1d2c3c}
        </style>
    </defs>
    <g id="calendar_7_" class="cls-1" data-name="calendar (7)">
        <g id="Group_60" data-name="Group 60">
            <g id="Group_59" data-name="Group 59">
                <path id="Path_25" d="M16.29 1.442h-.865V0h-1.442v1.442H4.469V0H3.027v1.442h-.865A2.165 2.165 0 0 0 0 3.6v12.69a2.165 2.165 0 0 0 2.162 2.162H16.29a2.165 2.165 0 0 0 2.162-2.162V3.6a2.165 2.165 0 0 0-2.162-2.158zm.721 14.848a.722.722 0 0 1-.721.721H2.162a.722.722 0 0 1-.721-.721V6.775h15.57zm0-10.956H1.442V3.6a.722.722 0 0 1 .721-.721h.865v1.446h1.441V2.883h9.514v1.442h1.442V2.883h.865a.722.722 0 0 1 .721.721z" class="cls-2" data-name="Path 25"/>
            </g>
        </g>
        <g id="Group_62" data-name="Group 62" transform="translate(2.821 8.312)">
            <g id="Group_61" data-name="Group 61">
                <path id="Rectangle_53" d="M0 0h1.395v1.395H0z" class="cls-3" data-name="Rectangle 53"/>
            </g>
        </g>
        <g id="Group_64" data-name="Group 64" transform="translate(5.637 8.312)">
            <g id="Group_63" data-name="Group 63">
                <path id="Rectangle_54" d="M0 0h1.395v1.395H0z" class="cls-2" data-name="Rectangle 54"/>
            </g>
        </g>
        <g id="Group_66" data-name="Group 66" transform="translate(8.528 8.312)">
            <g id="Group_65" data-name="Group 65">
                <path id="Rectangle_55" d="M0 0h1.395v1.395H0z" class="cls-3" data-name="Rectangle 55"/>
            </g>
        </g>
        <g id="Group_68" data-name="Group 68" transform="translate(11.419 8.312)">
            <g id="Group_67" data-name="Group 67">
                <path id="Rectangle_56" d="M0 0h1.395v1.395H0z" class="cls-3" data-name="Rectangle 56"/>
            </g>
        </g>
        <g id="Group_70" data-name="Group 70" transform="translate(14.236 8.312)">
            <g id="Group_69" data-name="Group 69">
                <path id="Rectangle_57" d="M0 0h1.395v1.395H0z" class="cls-3" data-name="Rectangle 57"/>
            </g>
        </g>
        <g id="Group_72" data-name="Group 72" transform="translate(2.821 11.203)">
            <g id="Group_71" data-name="Group 71">
                <path id="Rectangle_58" d="M0 0h1.395v1.395H0z" class="cls-3" data-name="Rectangle 58"/>
            </g>
        </g>
        <g id="Group_74" data-name="Group 74" transform="translate(5.637 11.203)">
            <g id="Group_73" data-name="Group 73">
                <path id="Rectangle_59" d="M0 0h1.395v1.395H0z" class="cls-3" data-name="Rectangle 59"/>
            </g>
        </g>
        <g id="Group_76" data-name="Group 76" transform="translate(8.528 14.094)">
            <g id="Group_75" data-name="Group 75">
                <path id="Rectangle_60" d="M0 0h1.396v1.396H0z" class="cls-3" data-name="Rectangle 60"/>
            </g>
        </g>
        <g id="Group_78" data-name="Group 78" transform="translate(11.419 11.203)">
            <g id="Group_77" data-name="Group 77">
                <path id="Rectangle_61" d="M0 0h1.395v1.395H0z" class="cls-3" data-name="Rectangle 61"/>
            </g>
        </g>
        <g id="Group_80" data-name="Group 80" transform="translate(2.821 14.093)">
            <g id="Group_79" data-name="Group 79">
                <path id="Rectangle_62" d="M0 0h1.395v1.395H0z" class="cls-3" data-name="Rectangle 62"/>
            </g>
        </g>
        <g id="Group_82" data-name="Group 82" transform="translate(5.637 14.093)">
            <g id="Group_81" data-name="Group 81">
                <path id="Rectangle_63" d="M0 0h1.395v1.395H0z" class="cls-3" data-name="Rectangle 63"/>
            </g>
        </g>
        <g id="Group_84" data-name="Group 84" transform="translate(8.528 11.203)">
            <g id="Group_83" data-name="Group 83">
                <path id="Rectangle_64" d="M0 0h1.396v1.396H0z" class="cls-3" data-name="Rectangle 64"/>
            </g>
        </g>
        <g id="Group_86" data-name="Group 86" transform="translate(11.419 14.093)">
            <g id="Group_85" data-name="Group 85">
                <path id="Rectangle_65" d="M0 0h1.395v1.395H0z" class="cls-3" data-name="Rectangle 65"/>
            </g>
        </g>
        <g id="Group_88" data-name="Group 88" transform="translate(14.236 11.203)">
            <g id="Group_87" data-name="Group 87">
                <path id="Rectangle_66" d="M0 0h1.395v1.395H0z" class="cls-3" data-name="Rectangle 66"/>
            </g>
        </g>
    </g>
</svg>
