<svg xmlns="http://www.w3.org/2000/svg" width="15.153" height="21.551" viewBox="0 0 15.153 21.551">
    <defs>
        <style>
            .cls-1{fill:#1d2c3c}
        </style>
    </defs>
    <path id="submenu6" d="M14.311 2.262h-3.63V.842A.842.842 0 0 0 9.839 0H5.315a.842.842 0 0 0-.842.842v1.42H.842A.842.842 0 0 0 0 3.1v17.6a.842.842 0 0 0 .842.842h13.469a.842.842 0 0 0 .842-.842V3.1a.842.842 0 0 0-.842-.842zm-8.155-.578H9v3.188l-1.42.793-1.42-.793zm7.313 18.183H1.684V3.946h2.789v1.42A.842.842 0 0 0 4.9 6.1l2.266 1.264a.842.842 0 0 0 .821 0L10.249 6.1a.842.842 0 0 0 .431-.735V3.946h2.789zm-9.26-9.387h6.735a.842.842 0 1 1 0 1.684H4.209a.842.842 0 1 1 0-1.684zm7.576 5.535a.842.842 0 0 1-.842.842H4.209a.842.842 0 1 1 0-1.684h6.735a.842.842 0 0 1 .842.842zm0 0" class="cls-1"/>
</svg>
