<svg xmlns="http://www.w3.org/2000/svg" width="20.964" height="20.978" viewBox="0 0 20.964 20.978">
    <defs>
        <style>
            .cls-1{fill:#1d2c3c}
        </style>
    </defs>
    <path id="submenu2" d="M19.007 0H2.958A2.46 2.46 0 0 0 .5 2.457V14.7a2.46 2.46 0 0 0 2.458 2.46h9.292v3.817l2.457-1.043 2.457 1.044V17.16h1.843a2.46 2.46 0 0 0 2.457-2.46V2.457A2.46 2.46 0 0 0 19.007 0zm-6.1 12.368V12.1l.227-.048.058-.015a1.3 1.3 0 0 0 .708-.509l.138-.2.236.084a1.3 1.3 0 0 0 .868 0l.236-.084.138.2a1.3 1.3 0 0 0 .708.509l.245.07v.208a1.348 1.348 0 0 0 .276.873l.122.158-.143.182a.686.686 0 0 0-.039.055 1.267 1.267 0 0 0-.215.694v.312l-.245.07a1.3 1.3 0 0 0-.708.509l-.138.2-.236-.084a1.3 1.3 0 0 0-.868 0l-.236.084-.138-.2a1.3 1.3 0 0 0-.708-.509l-.245-.07v-.207a1.334 1.334 0 0 0-.259-.852l-.14-.182.141-.185a1.17 1.17 0 0 0 .216-.795zm1.8 5.786l-.819.348v-1.425h.012a1.291 1.291 0 0 0 .438-.077l.369-.131.369.131a1.29 1.29 0 0 0 .45.074V18.5zm5.119-3.454a.82.82 0 0 1-.819.819H17.9a1.41 1.41 0 0 0 .211-.761v-.339l.217-.276a1.283 1.283 0 0 0 0-1.584l-.22-.285v-.448a1.255 1.255 0 0 0-.939-1.221l-.373-.107-.218-.316a1.3 1.3 0 0 0-1.5-.485l-.369.131-.371-.128a1.3 1.3 0 0 0-1.5.485l-.208.3-.356.075-.058.014a1.3 1.3 0 0 0-.948 1.263v.489l-.18.235a1.283 1.283 0 0 0 0 1.58l.22.286v.456a1.193 1.193 0 0 0 .167.639H2.958a.82.82 0 0 1-.819-.819V2.457a.82.82 0 0 1 .819-.819h16.049a.82.82 0 0 1 .819.819zM3.777 3.276h14.411v1.638H3.777zm0 3.276h11.135v1.639H3.777zm0 3.276h5.811v1.638H3.777zm0 0" class="cls-1" transform="translate(-.5)"/>
</svg>
