<svg xmlns="http://www.w3.org/2000/svg" width="23.669" height="20.155" viewBox="0 0 23.669 20.155">
    <defs>
        <style>
            .cls-1{fill:#1d2c3c}
        </style>
    </defs>
    <path id="submenu3" d="M22.743 3.513h-6.569a4.438 4.438 0 0 0-8.681 0H.924A.924.924 0 0 0 0 4.438v14.793a.924.924 0 0 0 .925.925h21.818a.924.924 0 0 0 .925-.925V4.438a.924.924 0 0 0-.925-.925zM11.834 1.849a2.593 2.593 0 0 1 2.417 1.664H9.416a2.593 2.593 0 0 1 2.418-1.664zm-.925 16.457H5.362v-2.034a2.774 2.774 0 1 1 5.547 0zm-4.16-8.044a1.387 1.387 0 1 1 1.387 1.387 1.388 1.388 0 0 1-1.388-1.386zm15.07 8.044h-9.061v-2.034A4.623 4.623 0 0 0 10.6 12.36a3.236 3.236 0 1 0-4.921 0 4.623 4.623 0 0 0-2.162 3.912v2.034H1.848V5.362h19.97zm-7.4-8.321a.924.924 0 0 1 .925-.925h3.886a.925.925 0 1 1 0 1.849h-3.883a.924.924 0 0 1-.925-.924zm0 3.7a.924.924 0 0 1 .925-.925h3.886a.925.925 0 1 1 0 1.849h-3.883a.924.924 0 0 1-.925-.926zm0 0" class="cls-1" transform="translate(.001)"/>
</svg>
