<svg xmlns="http://www.w3.org/2000/svg" width="19.303" height="19.303" viewBox="0 0 19.303 19.303">
    <defs>
        <style>
            .cls-1{fill:#1d2c3c;stroke:#1d2c3c;stroke-width:.3px}
        </style>
    </defs>
    <path id="submenu1" d="M12.545 4.639A4.639 4.639 0 1 0 5.1 8.329 8 8 0 0 0 0 15.774h1.485a6.5 6.5 0 0 1 6.5-6.5 4.645 4.645 0 0 0 4.565-4.638zm-4.64-3.154a3.155 3.155 0 1 1-3.154 3.154 3.158 3.158 0 0 1 3.154-3.154zm6.087 7.5A5.01 5.01 0 1 0 19 13.992a5.016 5.016 0 0 0-5.008-5.01zm0 8.536a3.526 3.526 0 1 1 3.526-3.526 3.53 3.53 0 0 1-3.526 3.523zm.708-4.271h1.262v1.485h-2.749v-3.23H14.7zm0 0" class="cls-1" transform="translate(.151 .15)"/>
</svg>
