<svg xmlns="http://www.w3.org/2000/svg" width="20.688" height="16.874" viewBox="0 0 20.688 16.874">
    <defs>
        <style>
            .cls-1{fill:#00d7bd;stroke:#00d7bd;stroke-width:.3px}
        </style>
    </defs>
    <path id="submenu4" d="M20.388 3.344a2.042 2.042 0 1 0-3.3 1.6l-3.852 2.77-2.19-3.87a2.041 2.041 0 1 0-1.788.012L7.24 7.713 3.287 4.8a2.021 2.021 0 0 0-1.245-3.628 2.023 2.023 0 0 0-.476 3.994l2.3 8.774v2.036a.6.6 0 0 0 .6.6h11.627a.6.6 0 0 0 .6-.6v-2.04l2.137-8.625a2.032 2.032 0 0 0 1.56-1.968zm-2.042-.831a.831.831 0 1 1-.847.83.84.84 0 0 1 .847-.83zm-8.2-1.318a.83.83 0 1 1 .006 1.661h-.015a.83.83 0 1 1 .008-1.661zm-8.948 2a.847.847 0 1 1 .847.83.84.84 0 0 1-.85-.825zm3.861 12.184v-.918H15.5v.918zm10.567-2.113H4.923L3.048 6.108l4.044 2.98a.6.6 0 0 0 .883-.2L10.164 4.7l2.363 4.175a.6.6 0 0 0 .869.191L17.375 6.2zm0 0" class="cls-1" transform="translate(.15 .15)"/>
</svg>
